<?xml version="1.0" encoding="UTF-8"?>
<!DOCTYPE svg PUBLIC "-//W3C//DTD SVG 1.1//EN" "http://www.w3.org/Graphics/SVG/1.1/DTD/svg11.dtd">
<!-- Creator: CorelDRAW Essentials X8 -->
<svg xmlns="http://www.w3.org/2000/svg" xml:space="preserve" width="55mm" height="47.5mm" version="1.1" style="shape-rendering:geometricPrecision; text-rendering:geometricPrecision; image-rendering:optimizeQuality; fill-rule:evenodd; clip-rule:evenodd"
viewBox="0 0 5500 4750"
 xmlns:xlink="http://www.w3.org/1999/xlink">
 <defs>
  <style type="text/css">
   <![CDATA[
    .fil0 {fill:black}
    .fil1 {fill:#9558B2}
    .fil3 {fill:#389826;fill-rule:nonzero}
    .fil2 {fill:#4063D8;fill-rule:nonzero}
    .fil4 {fill:#CB3C33;fill-rule:nonzero}
   ]]>
  </style>
 </defs>
 <g id="レイヤ_x0020_1">
  <metadata id="CorelCorpID_0Corel-Layer"/>
  <g id="_584227536">
   <path class="fil0" d="M500 750l4500 0c275,0 500,225 500,500l0 3000c0,275 -225,500 -500,500l-4500 0c-275,0 -500,-225 -500,-500l0 -3000c0,-275 225,-500 500,-500zm0 500l4500 0 0 3000 -4500 0 0 -3000z"/>
   <path class="fil1" d="M2250 500c0,-276 224,-500 500,-500 276,0 500,224 500,500l750 0 0 1000 -2500 0 0 -1000 750 0zm500 -250c138,0 250,112 250,250 0,138 -112,250 -250,250 -138,0 -250,-112 -250,-250 0,-138 112,-250 250,-250z"/>
   <path class="fil2" d="M4081 2924c0,-65 -18,-115 -52,-152 -34,-37 -82,-55 -142,-55 -62,0 -110,18 -145,55 -35,37 -52,87 -52,152 0,63 17,114 52,151 35,37 83,55 145,55 60,0 107,-18 142,-55 34,-37 52,-88 52,-151zm259 -415l0 833c0,127 -38,220 -115,280 -77,61 -196,91 -357,91 -130,0 -232,-24 -306,-73 -74,-48 -113,-117 -118,-205l305 0c5,26 19,46 44,61 24,15 57,22 97,22 63,0 107,-15 131,-46 24,-30 36,-94 36,-193l0 -76c-31,53 -71,92 -119,118 -48,25 -105,38 -171,38 -110,0 -198,-40 -265,-120 -67,-79 -100,-186 -100,-319 0,-134 35,-240 105,-319 69,-80 163,-119 281,-119 62,0 116,13 162,39 45,26 84,66 117,122l0 -134 273 0z"/>
   <path class="fil3" d="M2843 3344l0 -456c0,-72 -9,-122 -27,-150 -18,-27 -49,-41 -93,-41 -55,0 -93,19 -115,57 -22,39 -32,117 -32,236l0 354 -285 0 0 -456c0,-74 -9,-124 -26,-151 -18,-27 -49,-40 -93,-40 -55,0 -93,19 -115,57 -22,37 -33,116 -33,236l0 354 -287 0 0 -835 290 0 0 145c35,-59 75,-103 120,-130 46,-28 99,-42 161,-42 68,0 123,13 166,39 43,26 75,66 93,118 33,-53 72,-92 119,-118 47,-26 102,-39 166,-39 50,0 94,8 131,25 38,17 70,42 95,76 21,26 35,57 44,92 8,36 12,93 12,172l0 19 0 478 -291 0z"/>
   <path class="fil4" d="M1160 2248c0,-45 16,-82 48,-114 31,-31 69,-47 114,-47 47,0 85,16 116,46 32,31 47,69 47,115 0,46 -16,84 -48,116 -31,32 -70,48 -115,48 -44,0 -82,-16 -114,-49 -32,-32 -48,-70 -48,-115zm15 1096l0 -835 295 0 0 835 -295 0z"/>
  </g>
 </g>
</svg>
